<mxfile host="Electron" agent="Mozilla/5.0 (Windows NT 10.0; Win64; x64) AppleWebKit/537.36 (KHTML, like Gecko) draw.io/24.6.4 Chrome/124.0.6367.207 Electron/30.0.6 Safari/537.36" modified="2025-03-18T03:57:43.541Z" etag="w_SY7j_GCVe8_Hq4s9vr" version="24.6.4" type="device">
  <diagram name="Solution Diagram" id="deCsrxKZUGKW1uXlbBhw">
    <mxGraphModel dx="2600" dy="1195" grid="1" gridSize="10" guides="1" tooltips="1" connect="1" arrows="1" fold="1" page="1" pageScale="1" pageWidth="850" pageHeight="1100" math="0" shadow="0">
      <root>
        <mxCell id="0" />
        <mxCell id="1" parent="0" />
        <mxCell id="-ozHEYPznwQCQItne49--1" value="" style="rounded=1;whiteSpace=wrap;html=1;fillColor=#dae8fc;strokeColor=#6c8ebf;opacity=50;" parent="1" vertex="1">
          <mxGeometry x="-50" y="460" width="1150" height="555" as="geometry" />
        </mxCell>
        <mxCell id="9H72BqhRGrShsKc4ODkp-33" value="DB" style="shape=cylinder3;whiteSpace=wrap;html=1;boundedLbl=1;backgroundOutline=1;size=15;" parent="1" vertex="1">
          <mxGeometry x="970" y="600" width="60" height="80" as="geometry" />
        </mxCell>
        <mxCell id="9H72BqhRGrShsKc4ODkp-16" value="DB" style="shape=cylinder3;whiteSpace=wrap;html=1;boundedLbl=1;backgroundOutline=1;size=15;" parent="1" vertex="1">
          <mxGeometry x="70" y="740" width="60" height="80" as="geometry" />
        </mxCell>
        <mxCell id="-ozHEYPznwQCQItne49--10" value="" style="rounded=1;whiteSpace=wrap;html=1;fillColor=#d5e8d4;strokeColor=#82b366;opacity=50;" parent="1" vertex="1">
          <mxGeometry x="650" y="1040" width="450" height="210" as="geometry" />
        </mxCell>
        <mxCell id="-ozHEYPznwQCQItne49--9" value="Order Management Domain" style="text;html=1;align=center;verticalAlign=middle;whiteSpace=wrap;rounded=0;fontStyle=1;fontSize=14;" parent="1" vertex="1">
          <mxGeometry x="-15" y="480" width="230" height="30" as="geometry" />
        </mxCell>
        <mxCell id="-ozHEYPznwQCQItne49--11" value="Dispatching System Domain" style="text;html=1;align=center;verticalAlign=middle;whiteSpace=wrap;rounded=0;fontStyle=1;fontSize=14;" parent="1" vertex="1">
          <mxGeometry x="770" y="1210" width="230" height="30" as="geometry" />
        </mxCell>
        <mxCell id="9H72BqhRGrShsKc4ODkp-4" value="" style="edgeStyle=orthogonalEdgeStyle;rounded=0;orthogonalLoop=1;jettySize=auto;html=1;" parent="1" source="9H72BqhRGrShsKc4ODkp-1" target="9H72BqhRGrShsKc4ODkp-3" edge="1">
          <mxGeometry relative="1" as="geometry" />
        </mxCell>
        <mxCell id="9H72BqhRGrShsKc4ODkp-1" value="Order API" style="rounded=0;whiteSpace=wrap;html=1;" parent="1" vertex="1">
          <mxGeometry x="-30" y="700" width="120" height="60" as="geometry" />
        </mxCell>
        <mxCell id="9H72BqhRGrShsKc4ODkp-7" value="" style="edgeStyle=orthogonalEdgeStyle;rounded=0;orthogonalLoop=1;jettySize=auto;html=1;" parent="1" source="9H72BqhRGrShsKc4ODkp-3" target="9H72BqhRGrShsKc4ODkp-6" edge="1">
          <mxGeometry relative="1" as="geometry" />
        </mxCell>
        <mxCell id="9H72BqhRGrShsKc4ODkp-3" value="OrderReceived Event" style="rhombus;whiteSpace=wrap;html=1;rounded=0;" parent="1" vertex="1">
          <mxGeometry x="180" y="680" width="100" height="100" as="geometry" />
        </mxCell>
        <mxCell id="9H72BqhRGrShsKc4ODkp-14" value="" style="edgeStyle=orthogonalEdgeStyle;rounded=0;orthogonalLoop=1;jettySize=auto;html=1;" parent="1" source="9H72BqhRGrShsKc4ODkp-6" target="9H72BqhRGrShsKc4ODkp-13" edge="1">
          <mxGeometry relative="1" as="geometry" />
        </mxCell>
        <mxCell id="9H72BqhRGrShsKc4ODkp-19" value="" style="edgeStyle=orthogonalEdgeStyle;rounded=0;orthogonalLoop=1;jettySize=auto;html=1;" parent="1" source="9H72BqhRGrShsKc4ODkp-6" target="9H72BqhRGrShsKc4ODkp-18" edge="1">
          <mxGeometry relative="1" as="geometry" />
        </mxCell>
        <mxCell id="9H72BqhRGrShsKc4ODkp-6" value="Warehouse Consumer" style="whiteSpace=wrap;html=1;rounded=0;" parent="1" vertex="1">
          <mxGeometry x="330" y="700" width="120" height="60" as="geometry" />
        </mxCell>
        <mxCell id="9H72BqhRGrShsKc4ODkp-34" style="edgeStyle=orthogonalEdgeStyle;rounded=0;orthogonalLoop=1;jettySize=auto;html=1;exitX=1;exitY=0.5;exitDx=0;exitDy=0;entryX=0;entryY=0.5;entryDx=0;entryDy=0;" parent="1" source="9H72BqhRGrShsKc4ODkp-8" target="9H72BqhRGrShsKc4ODkp-32" edge="1">
          <mxGeometry relative="1" as="geometry" />
        </mxCell>
        <mxCell id="9H72BqhRGrShsKc4ODkp-8" value="Invoice&lt;br&gt;Consumer" style="whiteSpace=wrap;html=1;rounded=0;" parent="1" vertex="1">
          <mxGeometry x="680" y="550" width="120" height="60" as="geometry" />
        </mxCell>
        <mxCell id="9H72BqhRGrShsKc4ODkp-9" value="Dispatch Service" style="whiteSpace=wrap;html=1;rounded=0;" parent="1" vertex="1">
          <mxGeometry x="680" y="1080" width="120" height="60" as="geometry" />
        </mxCell>
        <mxCell id="9H72BqhRGrShsKc4ODkp-15" value="DB" style="shape=cylinder3;whiteSpace=wrap;html=1;boundedLbl=1;backgroundOutline=1;size=15;" parent="1" vertex="1">
          <mxGeometry x="432" y="870" width="60" height="80" as="geometry" />
        </mxCell>
        <mxCell id="9H72BqhRGrShsKc4ODkp-13" value="Warehouse API" style="whiteSpace=wrap;html=1;rounded=0;" parent="1" vertex="1">
          <mxGeometry x="330" y="840" width="120" height="60" as="geometry" />
        </mxCell>
        <mxCell id="9H72BqhRGrShsKc4ODkp-21" style="edgeStyle=orthogonalEdgeStyle;rounded=0;orthogonalLoop=1;jettySize=auto;html=1;exitX=0.5;exitY=1;exitDx=0;exitDy=0;" parent="1" source="9H72BqhRGrShsKc4ODkp-18" target="9H72BqhRGrShsKc4ODkp-9" edge="1">
          <mxGeometry relative="1" as="geometry" />
        </mxCell>
        <mxCell id="9H72BqhRGrShsKc4ODkp-29" style="edgeStyle=orthogonalEdgeStyle;rounded=0;orthogonalLoop=1;jettySize=auto;html=1;exitX=0.5;exitY=0;exitDx=0;exitDy=0;entryX=0.5;entryY=1;entryDx=0;entryDy=0;" parent="1" source="9H72BqhRGrShsKc4ODkp-18" target="9H72BqhRGrShsKc4ODkp-8" edge="1">
          <mxGeometry relative="1" as="geometry" />
        </mxCell>
        <mxCell id="9H72BqhRGrShsKc4ODkp-18" value="Order Ready" style="rhombus;whiteSpace=wrap;html=1;rounded=0;" parent="1" vertex="1">
          <mxGeometry x="700" y="690" width="80" height="80" as="geometry" />
        </mxCell>
        <mxCell id="V0X47S-BasVmAqZFtNcK-1" style="edgeStyle=orthogonalEdgeStyle;rounded=0;orthogonalLoop=1;jettySize=auto;html=1;entryX=0;entryY=0.5;entryDx=0;entryDy=0;exitX=0.5;exitY=0;exitDx=0;exitDy=0;" parent="1" source="FHFWv4Xz0EEvORIlSYWK-4" target="9H72BqhRGrShsKc4ODkp-1" edge="1">
          <mxGeometry relative="1" as="geometry">
            <mxPoint x="-370" y="790" as="sourcePoint" />
          </mxGeometry>
        </mxCell>
        <mxCell id="9H72BqhRGrShsKc4ODkp-32" value="Invoice&lt;br&gt;API" style="whiteSpace=wrap;html=1;rounded=0;" parent="1" vertex="1">
          <mxGeometry x="880" y="550" width="120" height="60" as="geometry" />
        </mxCell>
        <mxCell id="9H72BqhRGrShsKc4ODkp-37" value="Check stock" style="text;html=1;align=center;verticalAlign=middle;whiteSpace=wrap;rounded=0;" parent="1" vertex="1">
          <mxGeometry x="390" y="780" width="60" height="30" as="geometry" />
        </mxCell>
        <mxCell id="9H72BqhRGrShsKc4ODkp-38" value="1) Create an Order in DB and Publish an event &#39;Order Received&#39;" style="text;html=1;align=left;verticalAlign=middle;whiteSpace=wrap;rounded=0;" parent="1" vertex="1">
          <mxGeometry x="-30" y="600" width="120" height="80" as="geometry" />
        </mxCell>
        <mxCell id="V0X47S-BasVmAqZFtNcK-2" value="" style="shape=image;aspect=fixed;image=data:image/png,iVBORw0KGgoAAAANSUhEUgAAAoAAAAFoCAYAAADHMkpRAAA3tElEQVR4Xu3dB5wU9f3/8bmjF7GgKGLviZpiYqyxR38mpvk3xVgie3AH0kEFVBB7QwURK4q9R8QukSYoFooiEZAO0jt3N9/p3/937+IvP+e70b2bnb3dudfn8Xg+8PGRu5ndnf3Mm52dGUNKaQAAAKDx0BoAAABINq0BAACAZNMaAAAASDatAQAAgGTTGgAAAEg2rQEA+LbANkv8TctbKO2CTcv3UDoFj1x4kNV/35PEFfuep/zJvGLfi9LUf1+g/MYesO+xwfjrDlR/d2+lvfrZndSfzQPf034/AOSb1gAASMPfuKyJ9+HTnbwZT5/gvHjl38yUcYNZZjwrUsZsUWZsVFxFfg9HWat+Zpr62SfUn9e4E+/7o/qdP1e/e4/A3FYSXi4A5IPWAIDGzJv26C7OkxW/tYefdYcKbG+pALdAERnCXX1tV+aq3z3OfvAvQ9WyTvHnTWgTXg8AiJPWAIDGJHBESVC9pUX1DccdYQ858nrRc+ePVUBbL2o/vQuHt1xLB8vVot9eU6whR/Y3H7x4L7UuzQLP0dYTAHJJawBAY+F99toe9phLf22WGWOU6gwBLZ8CtQ5rlbvc8cNO8xdO5VNBALHRGgCQdN4Xb7V0XrrqVyp0vaBsSIevDIGsoaTXZZXVr8MI5+WrjvNXfdYsvP4AEJXWAIBECgIjMLcb3i0nHiYGdHpYhazl/w5b4QBWKNKHoL+yrj7stmD0+e2DwK95DNrjAoB60BoAkDTB9nVNvbG/O1h0NYaqULUjQ9gqbCljhdXdqPDGD+gUWFWl4ccHAHWlNQAgSdz37m1vP/CnbmaZMV0FKVsLV8UiZVSpx/Cm/WzvP7kfv9Ay/DgBoC60BgAkwqfjS53h554sKlqOVwFqixaoipSZMlaLPns85N1x7lFy5TyuIwigXrQGABQzf8OS5u6nL/3ELG/xqEgZm1Vo8sMhqsilv7foqce2zuzW+jZ/5Zx9/a1rmoafBwD4LloDAIqRv/XrUmfSqIPFkB/0N8uMJRmCUxKlLx3zoXXXr7qqx94xcC3teQGATLQGABSb4Llrm1h3nt65usyYrEJRVToYZQhLSRWIlLGluovxpn3v+WfK9x7hsDCA76U1AKAYBL5nBBuXtnZeGHCi6Np8nFlmVNaEIT0gNRa+CoLrRbc2D7lTHvxRsHll8/BzBgDf0BoAUOjcJR82cSaN/qkKPSNF7W3bwmGosVsh+uw20PngyYO9NQu4bAwAjdYAgIK1bb3hjynfy7z2iH5mmfGpSN4JHjmjnh+rOmW8J245qbM/tndb7bkE0KhpDQAoNIEjjKBqc0vrxl+cJzobHwgO92YrfVh4i0iVvmmPTR2jnsPmgedozy+AxkdrAEAhCea+3sZ+vOx0FWaeVor3Qs4NL30txJHuGzf/Ilj0fpPw8wygcdEaAFAQJkww3EeuONSuaHKXqL2sC4d7o0s/h184V+zdxxt5RSc5b57+vANoFLQGADSk9Nm93pIZO1nd9+kqLjY+KerbtxWqlLFD/NWYaPU//HdB5eamge9rrwOAZNMaANAgdmww/AWTdxWDDj9X1J7goQcX5JyZMl4WI35zUjB/cltpm/rrAiCRtAYA5FsgKps4D/71VCtlPKRCyaZwSEGs0ieKLLc7G3e6rww5OvzaAEgmrQEA+eS9M3x3647ThpllxiIVRpwMAQX5YYvyFjPtu88p92aP2yn8OgFIFq0BALHbsMRwZ4/rWN2tTVfRpemXguBXKNKX1lFBsPkH1T13+72/YvbOctsa/fUDUPS0BgDEyV8+ayf3uqN/bZYZ42vChh5CUAhSRpXygDvi3F8Gm1e2CL+OAIqb1gCAuNgP/vVo67ofP6iCxUrBZV0KX8pwlQX27afe4b4yeI/w6wmgeGkNAMgZ3zeCdYubipcG7WP273ilChVrBYd7i5EtypvNdQZ0vMyf9liHYNuKEu21BlBUtAYA5Ir3yUt7OBcbXVSA+FhxMwQLFBdLede9bs/z/EXT24VfbwDFQ2sAQFT+kk+aO2O7nCl67fasWWZszxAkUNy+tq4+bLR6jY/xt60rDb/+AAqf1gCAehHCCLZtbOrfevqBYsDeD4iUsVrxMoQHJIOtXt9l4qqDrg0eK28fbNnYRDqOvl0AKEhaAwDqKjC3l3q3djvI+rXRTwWD9Ake4bCA5PLMMmOW/Uujs/vi8I7hbQNAYdIaAFAX7vtjWtlj/v53FQImqTBQnSEgoHHYZnYtfcV5YcCZ7ty3m4e3EwCFRWsAQDaCZbNK3RuPO0b03OVZM2VsyBAI0PgEZvqw8IBO93p3HHdAYFVytjBQoLQGAHwXf8Pi5t78SYebZcZ9ghM88N9tEoMP7et9OemAYPv6JuHtCEDD0hoAkEngCMN+/fp97Nt+2Vft3D8VtbcNC+/0gf9LiM7Ge/b9f+5sT7iXy8YABURrAIDmo5Elzt2n/091mTFF1H7qR/hDtgKzzNhoVrR6wR39q2Pkwjf07QtA3mkNAPiGv2puK/etW08S5U2eFyljR3pnnmEHD2Qjfeu/jaK82b3uzJePDNYvbhre3gDkj9YAALnqs1LvnyN+IHrtcoPaaa/KsDMH6s0sM+ZZQ4663H93xH5yy2pOFAEagNYA0Lj5L17S1h7208vVjnq6SBl2eOcN5ED6k+TtVmfjXfv20/8sJw3RtkMA8dIaABqfwDYNf/2inexRfzhddC2ZpoJf+np+HO5FvFKGX/PVgm7NnnFevPJYtQ22Cnxf2z4B5J7WANC4BHPfaOK8NPBUtUN+WNmq7aSB/PhadDFucyff/0O5ZAaHhYGYaQ0AjcTs2YZ7Y9m+dr8O14iUsVDUfkk/vFMG8il97+hp9rU/6OYNLNtNbtqkb7cAckJrAEi2QOwo8dctamf23vtScZHxiVlmmBl2xEBDSV82Zru40Jgkbjzh9GDH+lbpryiEt2MA0WgNAAllVRr+nH/sLO486xwzZbyW3tFm2PkChcSsLjMesp4oPymY+VoLbZsGUG9aA0AyOc/1+anV1bjfrL2sC+EPxcJT2+wCu3PzG70pD+8X3q4B1I/WAJAcgWuVeB8+3d664dh+ZnmzL9XO1MmwgwUKX8oQoufO0+2bjv2bv/TjtoFra9s7gOxpDQAJsGWp4S94b/fK8uaXmGXG54ITPJAcvtqmp1Rd+8PT/IXv7SyrNujbP4DvpTUAFLdgw9KW7sjTzrbKjcf/fT2/8A4USII1dndjpPvohccFtsllY4A60hoAipfzdI8O4vpjRqvgt1ztIN0MO00gSdJ3qllg3X7qFe6Eu9uF3w8A/jutAaC4BOvmlvhvDd/f6dKyr+hSssLkcC8aGTNlOKJLkzluRcuL/Tnj95CbF2vvEwDfpjUAFA9v3ru7ONfu/heRMiZz316g5pqWz7l3/uRMf8Wc1uH3C4D/0BoACp+/dXWpff/5x4mr9n9C7fDWZdgRAo1TquYkkSXWsB+PsB6+8ODwewdALa0BoEAJYQTLFzbzH7xgf9Gn/XC1s9sg+J4f8N84KgiutHt1uNx//uqOgV3dRHtPAY2Y1gBQmNwnh+5nnW705LIuQJ3YZsqY7Lx45cXuZ6/tHH5fAY2V1gBQWNzZrzS3H+v8G7Os9F21M9uRYQcH4PttNvvu/pg1tvOJ3oqZfBqIRk9rACgMwZbVzd1+h/7Y7L3bE2bt9/y4fRsQjZs+LGz273iXf+OZnQJze9Pw+w5oLLQGgIYVbFnV1Jv58hHWVQdeq3ZYmzPsxABEt8C+84xu6r22XyB2cCFpNDpaA0DDsV6/cWdrxK97qJ3TdMXKsNMCkDvpr1S8ZY35+wXW+481C78fgSTTGgDyKwh8I/ji+abOnT872axo/pZZZmwVHO4F8iUwU8Zas+cuY9xrfnZksGx2afg9CiSR1gCQP/7KOc3d98ccJ1LGWMEJHkBD2yjKm93i/WvCIf6GxXw/EImmNQDkwaYVJd6rQw+yrjlsoFlmLMiwIwLQMNKXWHrfuv2UCv/1oR2k5+jvXyABtAaAmL3d17Cv/9nFVqrme35VgsO9QKFJvye3WF2Md+2rTztR3nef/j4GipzWAJB7ge8Z/tKP29mPl51pdil5U6RvXk/wAwpdoN6r282y0sfct277hb/ysxbh9zZQrLQGgByb+16p+/rNx5hlxii1M1mbYScDoPAtNnu1H+y9c9fBcuXnXDYGRU9rAMgdb+HU3a0rDuyvgt8stQPxMuxUABSLlGEqk6zrfnqpv3lVy/D7HSgmWgNANEH1lhJ/7YJdzCFHnS967DTLLDOE4HAvkBTpy8ZUi167vmuP/uMJ6r3eNrBNbQ4AhU5rAKi/YOoTraxHLjq7usx4UtQGv/DOA0AypP9Rt6E6ZYywXx58vJz7BoeFUVS0BoD6cSfcfaCdajbCLDOWiNpLSYR3GACSxzVTxlyn3559vU9f3jM8F4BCpTUAZM+v3FTiffH2ntaggy8X3VrPVTsDO8MOAkCSpWrOFq4SvXadbg0++P/56xe3leY2bV4AhURrAMjCjtWGP+fF9lVDDjvPLDM+EHziB6CWZ5UZT3v3nHNa8PmLbaRTrc8PoABoDQDfLbCqSp37f3uK1c14VA379Rl2AAAat/Q/CJdYPYy7nZcGHB6eIUAh0BoAMgh8I7CrS5xXh+1uDf3RMDXcVyrpizmHBz8A1DDLDEuUN58rbjimzP3omXZqhuizBWggWgOAzp/5/C52X+MSM2V8JjjcC6BuXOU9N9X6bH/5LO4mgoKgNQD8HzNmGN5jQw4Wl7e9Tw3wrRkGOwBk62tr0CFXefcN6SiXL9fnDZBHWgNALW/tV6VVvQ49RfzN+Kfg7F4A0aWvHbhD/Ml4qWroT48Izxwgn7QGAGn4a75sLbq16W6mjA0md/EAkEPpmaJ8bd/40zOCzSu4pRwahNYAGjt/8YftrcGHDRIpozI8uAEgh5bbd57exd+wuG14DgFx0xpAY+avmrurdc0Rt6rwl/6+H5/8AYhTesassW4+rk9gVTYNzyMgTloDaKz89YvamT3ajRG13/cj/AHIF1Pc8LMrg21rWoXnEhAXrQE0Rv7iGbuKqw64OcNgBoB82GLdfkovf91XHA5GXmgNoLHxl3/aWlz7w6vM2sO+4aEMAPmQPjFklXXryRcHOzZwOBix0xpAYxKsWdDE7L3npWrwbkgP4AxDGQDyJRApY6V1w89OllWbtXkF5JLWABoTd9DhJ6mhuzbDIAaAhvKZ99BfDg3PKyCXtAbQWHgznukoeu6SvshzePgCQEOyxeBDH/YWTm0fnltArmgNoDFw57za0uy92y0iffadPnwBoEGZZcYWs98+Ff7qBc3C8wvIBa0BJF1gVZXaz/e7QA3Z1eGhCwCFQoXAJe7kB48NzzAgF7QGkHT+C1fuKVI19/fVBi4AFJTyZs/K9x9vEp5jQFRaA0g60WfPClF7sWd92AJAIUkZ2527zjk7PMeAqLQGkGTV913QyUwZy7UhCwCFKGUE1Sljov36TXuG5xkQhdYAkspd9mkTMfSo69RAtbQhCwAFyiwzNou7zk75m1aUhucaUF9aA0gqZ8Ldh6tBOkNwwWcAxSUwU8Y/vPmT9wrPNaC+tAaQRMGKWU2cnq36qkFanWG4AkChq/T67PTbwHO1+QbUh9YAkshf+kknNUAnZBiqAFAsXlYBsCQ834D60BpAEtkjf3uqGp7bMwxUACgW29xXh3IYGDmhNYAkEuUt7sswTAGgqNg3H98zPN+A+tAaQNJ48ye1FF2brggPUgAoOoMOmeCvmN0yPOeAutIaQNJYd555gpniws9516VEip67SGvQwdK6/hhp3XyctG4/Rdp3nCatW06U1k2/kNbQo6U18AD193bWf74YdG0qRd8O0hp8qLRu+Jl6jMfXPEYr9BjFlftJ0WMn9TMl+u8A6iJlfOW8MOCn4TkH1JXWABLFsQzrtlOvUwHQ1QYpckgFm4oWKujsK60xl0p36kPSWzhV+l/Pk/76RdLfuEwGm1fIYMsq5Wv13ytlsGmF6i+V/rqvav6et3CK+rmHpf1EVykGHqh+X8vaEKktq4Gkw1731tK67RTpvDxIuh89J71ln0p/zfzax7hpee3jyvgYF6rH+IX0FqjHOPkBaavnSAw6qPYxEgpRFyljq/NMr67Sc/R5B9SB1gCSxH9paAvrMuMdwbX/4tNzZ2nd9wfpzRkvA7FD5qICu1p6896V9kN/k6J3e32Z+dSltObTPWf89TVBLgiC8OrWrxxLPcYJ0r7vj1L02V1fLpCZb19ijAo+GddcZph5QLa0BpAkzvih6Ys/f5ZhiCIXBh4onXeGy6Bqi4yjAqtKupPvl1b607LwsvOhvLm0x1xS8+md9P3w6kUvFSaDqs3SnfKQtK46QF8+kEnKeNObNW4fmWHmAdnSGkCSOK8OPUcNTE4AiUPfDtKdPlYGtinjrMCxpDvtUSn6d9TXIU5dSqXz2GXS37wqvEo5r8C1pPfxc5LDwchKypjrzR7H9wARidYAkkQFwHI1LLn+XwycN27O3eHQ76nAtaXz0sDa7+FlWJc4WHecWvP9xHw9Rt/3pD22TFsPQJMytnpv3vIrvgeIKLQGkBT+xqWlYviZw9TA9LQBimj6dZTBjo0yn5U+2UL021Nflzh0ayXdCfeo5BnDYd//Uumgmf5OYNGeEY188u0y42L1HtTmHpAtrQEkhdqZtq5OGVwAOgb2E+V5+2Tsfyv9Cdnd/6OtSyz6dpD+hsXhNYi90p84WjefoK8PEJYyrlIBsKnMMPuAbGgNIClUAGxvpoxntMGJaLo0qT3jN98BUFX6UzltfWJg3XqSenz5+/Tvm/IrN0n7kUu09QHCzDLjnqByI2cCo960BpAUKgDuowLgG+HBiYgG7C395bNlQ5Q3f7K+PjFwnqgILzovlT6hxnmhv7Y+QJgKgE+rANhKZph9QDa0BpAUKgAeoALge+HBiWjS18Tz1y6UDVHp5YryZto65Zrz+o3hReenfF+6r16nrQ8QpgLgOBUAW8sMsw/IhtYAksL714SD1ZCcGh6ciMa+6+yaO1w0RPkbl0vRby9tnXLNnXR/eNF5K/et22sOs4fXCfi/1Gx7WwXANjLD7AOyoTWApFAB8DA1JGeEByeise//fzLYtlY2RKVvs2YNPkxbp1zzPnwyvOi8lfv2HXm93A2K1kQVANvKDLMPyIbWAJKCABgP+6ELZbBjg2yICraultZ1P9bWKdcIgCgCBEBEojWApCAAxsN55GIZVG6SDVHBtjXSuv4YbZ1yzfvkhfCi81YEQGSJAIhItAaQFATAeDhjUzKojufev99X6UPP1k3HaeuUa96sceFF560IgMgSARCRaA0gKQiA8XAe76oC4FbZEBVsXyetW0/W1inXCIAoAgRARKI1gKQgAMaDABhvEQCRJQIgItEaQFIQAONBAIy3CIDIEgEQkWgNICkIgPEgAMZbBEBkiQCISLQGkBQEwHgQAOMtAiCyRABEJFoDSAoCYDwIgPEWARBZIgAiEq0BJAUBMB4EwHiLAIgsEQARidYAkoIAGA8CYLxFAESWCICIRGsASUEAjAcBMN4iACJLBEBEojWApCAAxoMAGG8RAJElAiAi0RpAUhAA40EAjLcIgMgSARCRaA0gKQiA8SAAxlsEQGSJAIhItAaQFATAeBAA4y0CILJEAEQkWgNICgJgPAiA8RYBEFkiACISrQEkBQEwHgTAeIsAiCwRABGJ1gCSggAYDwJgvEUARJYIgIhEawBJQQCMBwEw3iIAIksEQESiNYCkIADGgwAYbxEAkSUCICLRGkBSEADjQQCMtwiAyBIBEJFoDSApCIDxIADGWwRAZIkAiEi0BpAUBMB4EADjLQIgskQARCRaA0gKAmA8CIDxFgEQWSIAIhKtASQFATAeBMB4iwCILBEAEYnWAJKCABgPAmC8RQBElgiAiERrAElBAIwHATDeIgAiSwRARKI1gKQgAMaDABhvEQCRJQIgItEaQFIQAONBAIy3CIDIEgEQkWgNICkIgPEgAMZbBEBkiQCISLQGkBQEwHgQAOMtAiCyRABEJFoDSAoCYDwIgPEWARBZIgAiEq0BJAUBMB4EwHiLAIgsEQARidYAkoIAGA8CYLxFAESWCICIRGsASUEAjAcBMN4iACJLBEBEojWApCAAxqNRBMDZr4YXnbdy371bivLm2joBIQRARKI1gKQgAMajUQTAeRPCi85buf8cKUVFS22dgBACICLRGkBSEADj0aABcMcGaQ0/U1unXPPnTw4vOm/lvnevFN0IgPheBEBEojWApCAAxqNBA2DlJmmPPE9bp1zzV34WXnTeyp14nwqArbR1AkIIgIhEawBJQQCMR4MGQLVc+5GLtHXKKRW+go3LwovOW7lTH5bi8p309QK+jQCISLQGkBQEwHg0aAC0q6Xz0kBtnXLJuvaHMti2NrzovJU34xkperfX1gsIIQAiEq0BJAUBMB4NGgB9T7rvj4n1LFn7ob+qx7ctvOi8lTf3LSmu2EdbLyCEAIhItAaQFATAeDRkAEyXt+gDKa45QluvnOjaVLqT7peB54YXm7fyV30uraFH6+sGfBsBEJFoDSApCIDxaOgAGLiWdF65VoqKFtq6RdKlRFrDfyX9tV+FF5nfcm1pP3ShWqcSfR2B/yAAIhKtASQFATAeDR0A0+VvXpn7kHT1YdL97A31y73w4vJe3vzJUvTaTV9H4D8IgIhEawBJQQCMRyEEwHT5m1ZI5+VBUvTtoK1jnXRtJu3hZ0lv4VQZuE54MQ1S6UPQ7qTR0R8bkowAiEi0BpAUBMB4FEoADIKgJij5W7+W7odPSvuBP0vr+p9JK/39wIEHSnHlfrUnU3zjyv2lGHRQzf+3hv1EWiN+I523bpP+8tkysM2a31dIVfPY1i2qWUf7jjOkde0Patb/W4+rf8dv69ehNjTW2EOK3rspu0rRc2elnRSXt5Wie5va6wym7zaSPpkmfd/hLqXa64yCRwBEJFoDSAoCYDwKJQBqlQ6EVnXNJ4PpUOcv+kD6C6bUWjhV+otn1JxgkT58HFhV6VOKw7+hYCvwPOlvW6PWf656XNNrHpM3f5L0vnhHenPf/o/Z46Q36x+1Zr4svY+elp4Kx977Y6Q75cGau4y4E+6R7tu3S/eNm6U7fph0X7lWOi9eIZ3n+kjnqW7q9e0inUf/Lu2H/ybt+y+Q9qjfS1uFZfuus1QQPU1at5wkrZt+URuihxwprasPqw3cAzrVHrYub6ZtM4gFARCRaA0gKQiA8SjYAEhFrsBzZOAIGYjKmtc42LGx5pqIwZavay6OHaxfJP0186X/9Tzpr5wj/WWfSn/JR9L/anrN7fPSgdT99KWakGmrICkGHqRtP8gZAiAi0RpAUhAA40EApL6rvjk0X/Np7LY10v3oGWndcgKfDOYeARCRaA0gKQiA8SAAUnUtf9taaT/Wufb7hhm2KdQLARCRaA0gKQiA8SAAUvUpf9Nyad3zP9r2hHojACISrQEkBQEwHgRAqj4V+L50Z4+Tot+e2jaFeiEAIhKtASQFATAeBECqvpX+TqA18jxtm0K9EAARidYAkoIAGA8CIFXv8j3pPD9Aiq5NtO0KdUYARCRaA0gKAmA8CIBUlHIm3ifF5W207Qp1RgBEJFoDSAoCYDwIgFSU8mb+o/YOJRm2LdQJARCRaA0gKQiA8SAAUlEqfbHomtvUZdi2UCcEQESiNYCkIADGgwBIRSn/y/c4Ezg3CICIRGsASUEAjAcBkIpSBMCcIQAiEq0BJAUBMB4EQCpKEQBzhgCISLQGkBQEwHgQAKkoRQDMGQIgItEaQFIQAONBAKSilHpfStG3g7Zdoc4IgIhEawBJQQCMBwGQilLeZ69L0Wd3bbtCnREAEYnWAJKCABgPAiAVpbw5rxEAc4MAiEi0BpAUBMB4EACpKEUAzBkCICLRGkBSEADjQQCkopT32RsEwNwgACISrQEkBQEwHgRAKkpxEkjOEAARidYAkoIAGA8CIBWluAxMzhAAEYnWAJKCABgPAiAVpQiAOUMARCRaA0gKAmA8CIBUlCIA5gwBEJFoDSApCIDxIABSUYoAmDMEQESiNYCkIADGgwBIRSkCYM4QABGJ1gCSggAYDwIgFaUIgDlDAEQkWgNICgJgPAiAVJQiAOYMARCRaA0gKQiA8SAAUlHKXzRdBcCO2naFOiMAIhKtASQFATAeBEAqSvmLP5Ci/97adoU6IwAiEq0BJAUBMB4EQCpKEQBzhgCISLQGkBQEwHgQAKkoRQDMGQIgItEaQFIQAONBAKSiFAEwZwiAiERrAElBAIwHAbABKghkYFVJf91X0l81NzsbFsvAEeHf1OBFAMwZAiAi0RpAUhAA40EAzFOlQ5/vSX/TCumMGyKtm34hrcGHSmvQQdm5+jBp3X6qdN65U/rb1qhf54eX0CDlL58lxYBO2naFOiMAIhKtASQFATAeBMD8VGBuk+7EUVJcsa/2GtTZVftLb/arMrCqw4vJe/kr56jHtI++jqgrAiAi0RpAUhAA40EAzE85b90uRa9dtee/3q7cV7oznpaBY4UXldciAOYMARCRaA0gKQiA8SAAxl9e+mLJffbQnvvIhhypAtjnNYeXG6oIgDlDAEQkWgNICgJgPAiA8VZgbpfWyN9oz3uu2GNTMvAb7vuABMCcIQAiEq0BJAUBMB4EwHjLWzBFikEHac97zvRuLwNRGV5s3ooAmDMEQESiNYCkIADGgwAYb7nvj5GiRzvtec8lf8Wc8GLzVv7qL6W4cj9tnVBnBEBEojWApCAAxoMAGG+579wpRXlT7XnPJe/zN8KLzVv5axfWnJUcXifUGQEQkWgNICkIgPEgAMZb7tt3SNE17gD4enixeSsCYM4QABGJ1gCSggAYDwJgvJWfAMgngAlAAEQkWgNICgJgPAiA8VZeAuD8SeHF5q0IgDlDAEQkWgNICgJgPAiA8VY+AqC/YEp4sXkrAmDOEAARidYAkoIAGA8CYLxFAESWCICIRGsASUEAjAcBMN7KSwBc8lF4sXkrAmDOEAARidYAkoIAGA8CYLyVlwC4bGZ4sXkrf8NSFQAP0NYJdUYARCRaA0gKAmA8CIDxVtIDYLB5pbQGHqitE+qMAIhItAaQFATAeBAA4628BMBVc8OLzVsRAHOGAIhItAaQFATAeBAA4y134igpurXSnvdc8jetCC82b0UAzBkCICLRGkBSEADjQQCMt7xZr0jRfy/tec+ZPu1l4NjhxeatCIA5QwBEJFoDSAoCYDwIgPGWv2GJtG78ufa854r90IUy8P3wYvNWBMCcIQAiEq0BJAUBMB4EwHgrCHzpTrhHivLm2nMfWb+O0lswWS0jCC82b0UAzBkCICLRGkBSEADjQQCMvwKxQ9r3/laKLqXa819vPdpJ9/Wb1O+uDC8ur0UAzBkCICLRGkBSEADjQQDMT3lfz5PWqN9JUd5Mew3qrLy5dMYNkcH2deHF5L0IgDlDAEQkWgNICgJgPAiA+an09/T8rWulkz4cPOiQmk/wRLeWUlQ0z073VlL02lVaN58gvU9flIFVFV5EgxQBMGcIgIhEawBJQQCMBwEw/+VXbpLenFel+85w6b52fXYm3if9r6YVTPD7pgiAOUMARCRaA0gKAmA8CIBUlCIA5gwBEJFoDSApCIDxIABSUYoAmDMEQESiNYCkIADGgwBIRalg62oVAA/StivUGQEQkWgNICkIgPEgAFJRKqjcJK3Bh2jbFeqMAIhItAaQFATAeBAAqShFAMwZAiAi0RpAUhAA40EApKIUATBnCICIRGsASUEAjAcBkIpSwY6N0hp0sLZdoc4IgIhEawBJQQCMBwGQilLBlq85Czg3CICIRGsASUEAjAcBkIpSXAYmZwiAiERrAElBAIwHAZCKUgTAnCEAIhKtASQFATAeBEAqShEAc4YAiEi0BpAUBMB4EACpKEUAzBkCICLRGkBSEADjQQCkopS/aYUUBMBcIAAiEq0BJAUBMB4EQCpK+esXSXHV/tp2hTojACISrQEkBQEwHgRAKkr5axZIceV+2naFOiMAIhKtASQFATAeBEAqSvlfz5Xiin207Qp1RgBEJFoDSAoCYDwIgFSU8pfPlGJAJ227Qp0RABGJ1gCSggAYDwIgFaX8xR9K0X9vbbtCnREAEYnWAJKCABgPAiAVpfyFU6Tot5e2XaHOCICIRGsASUEAjAcBkIpS3hfvSNG3g7Zdoc4IgIhEawBJQQCMhzM2JYOqLZKi6lPezH9I0Xs3bbtCnREAEYnWAJKCABgP++GLZLBjo6So+pQ77TEperTTtivUGQEQkWgNICkIgPGwH/iTDLavkxRVn3In3CNF99badoU6IwAiEq0BJIUKgIeoADgtw+BEBPbI38hgyypJUfUpZ/wwKSpaaNsV6uxdFQDbyAyzD8iG1gCSQgXAA1UAnJRhcCIC6+bjpb9ukaSoulYQ+NJ+6nK1HZVo2xXqRs228SoAtpYZZh+QDa0BJIUKgPuoIflmeHAiokEHSX/l55Ki6lrps8ft+y/QtynUmZptz6oA2EpmmH1ANrQGkBTevAl7iJTxQnhwIqKKltJfMCX9cY6kqLqUv+4rad12ir5Noc5UABytAmALmWH2AdnQGkBSqADYtjplPBgenIjOfeculf8IgFQdSm0v3vyJUly1v7Y9oR5SxnXBjo3NZIbZB2RDawBJ4S2f3cQcfOhNalj62vBEJNatJ8nAcyVFZVuBY0v3rdvU9lOqbU+os8DubKRUACyVGWYfkA2tASSJ8+rQHmpYVmYYoIiiazPpLflYUlS2FWxdLa0bj9W3JdRHpffAJedKq1qbeUC2tAaQJCoA/kENy9UZBigiskafL4PqLRwKpr630tuIk/70r2tTbTtCPaSMxd7sccfJDDMPyJbWAJLEfXXoUWpYfqENUERX3lzaT5RLf9MKQiCVudR2kb5toDtptBSXt9G3IdRPynhPBcADZYaZB2RLawBJ4r01tI3oarynhmagDVFEV9FC2vf9QXrzJshAVEqK+t9ybenPnyztp7pL0ae9vu2gvgIrZTzizx7HRaARidYAEmXTV4Z9w49HqKHpZRikyJWBB0h79PnS/edI6S2fJQOrWlKNrwK7WnpLP5LuxFHSfuAv0hp0MId9c6/aGX3+VXL7On3eAXWgNYCksYefeY4amnaGQYqcKpGivJkU3VpJ0WsXaV1zmLTuPE3a9/1R2mMulc7YlHSeKJfOs71R7B7vUvN62o9cIq1Rv5PWrSfXhr2e7Wpf//R2wN0+YmGmjOX2CwNODc85oK60BpA07sR724oupevCgxQAio15oTHNHTlg5/CcA+pKawBJJCpaPB8epABQdPodcqucPVubcUBdaQ0gicTA/X8rOAwMoIiZZYYj7vvDkeH5BtSH1gCSyF/6yX5qeE4PD1QAKBZqhk0JPLckPN+A+tAaQBIFiz9pYV1qDBV8CgigODnOpUYXFQC1+QbUh9YAEsk2DfeFq443U8Y8wTUBARSXQM2uD71pYw+TQaDPN6AetAaQWDNfbWr37Xi34FNAAEXELDOqxOAjBngr5zbV5hpQT1oDSDLvwfOPVAP16/CABYACFagA+LHzxo2Hh+cZEIXWABJt3YIS0WvX4emhmmHQAkBhSRm2dfNxff0tq0q1eQZEoDWApPNvOWcfNVhnaYMWAAqM2aV0mnz2ihbhOQZEpTWApPMrNza1Rp7XWf3LelN42AJAAdlgP335ueEZBuSC1gAaA+f9x/ao7mw8qwasl2HoAkBDc5QR/oo5bcPzC8gFrQE0BoHnGM4r1xwqKlrMyTB4AaAheWavXd50P3jiwMD3tPkF5ILWABoT55rDf6+G7eYMAxgAGkbKWOY++JdTw/MKyCWtATQmwSfPt6juYgxTQ7daG8IAkH9C9NqtXC7+kLN+ESutATQm6cMrzsfP7W723Hm0+le3mWEYA0B+pIwq0XePG/wVc9qEZxWQa1oDaIy8j57tKHq3Hyu4PiCAhlFtXX3YPf6i6buH5xMQB60BNFbuzJf3Uf8Cf0cQAgHkW/+9x/hfvd8xPJeAuGgNoLEKgsBwZzx9uOjW6mUVBNOXYCAIAohTkL7Th9ljpyf9lZ93CM8kIE5aA2jsvE9e2Fv02eMBvhMIIGZbrMGH3u4t/aR9eA4BcdMaAFQI/PSl9qJrszvMMmNbhqENAFFtt648oLe/cOpu4fkD5IPWAFDL//Dpne1U056irGSV4HAwgOgCMz1LOhtLq8qbXOp/PY97/KLBaA0A3+a8dv1RoqL5W4JrBQKIQIW/HWbv9k+7ZacdIefO1WYNkE9aA4DOff7qjvZZNReMXqT44cEOAN8hPTP+ZXdrcaXz4VO7hucL0BC0BoAMqquNYNq7rcU9vz7RTBkvCw4JA8iCmhfC7Gw8bj/T6/hg/sTm2mwBGojWAPDfBa5t+NvWthD9D/5/4kJjqkgZleGBD6DRS/8DcZsoNybbd591VmBVNw08V5snQEPSGgCy8MUXhndn705On44D1KCfp3gZdgIAGh/fTBkzxJAf9fLH9+4gxRZ9fgAFQGsAyF7wr4ml7vjrTxCXGaNEytiSYWcAoLFIGevVLBjufvDEUd6yWU3C8wIoJFoDQN2kDwsHW9e0sh+++DhRXvKu2hFsF5woAjQW6cO9W0T3ls/Zr13/czULWgaBr80JoNBoDQD157/arY246fiy6pQxSe0UrAw7CwDJkA5+lWaZ8U9rxK8vkRNu5RM/FBWtASAab/WXpc7URw4VvXa7Ru0gVmbYcQAocir4LRTDftLLff+RA/3t60rCcwAodFoDQG746xe3cCeOOkZUtByrdhibBJeOAYpbyvCVdaJ729HeKQf/wN/ydbPw+x4oFloDQI5NfajEvve8s8wy412189gqCIJAMdokurV50bn3jyfILyaUau9zoMhoDQC5F7iW4Uy4a29r+JndVRD8SBACgWJhK1PsMZem3KljuIsHEkNrAIiPv3lVM3/pxwea5c3vEiljs6g9W5gwCBSWoOZwb5l6j17e/Ar/uYv2C6o2Nw2/n4FipjUA5MHKeSXezWccLXrv/qiZMtZm2AEBaBjpf5Att646YLQ//IyDpWPp718gAbQGgPxxP3ymlf1U9wtVCHxHpIzqDDsjAPmSvrVjlybjnFeHnuPNn9Qq/H4FkkRrAMivwKos9cb13c+63OihdkArtJ0SgLilz+6dZ/cyyrz3R+8dfo8CSaQ1ADQA3zUCxyzx7/3tXtbAg+42U8Yys8xwM+yoAORO+gSPJWLoUUPFi/13Sb8HJXfxQCOhNQA0LH/F7Ob2c31PNfvuMVbtnLZl2GkBiEj9A2udGHLk/e5zfY8PdmzgLh5odLQGgMLgzX2zvdvPuFTtrD4UfBoI5IqjTHL77X2ev3zmLuH3HdBYaA0ABSIIjGDHulLr9Zs6VA8+tIdZZiwXtYeswjs0AN/PEhUtPhODD+3sfvLi7sGOjdy+DY2a1gBQmJwnuh5l3XjsvSJVEwTT1ygL7+AA6NKfni+0zjaGO+OHdQq/r4DGSmsAKFz+11+0da855iyzs/GK4NNA4PsIq7PxsDvyD6f6zz3aSvqc4AF8Q2sAKHBbVhvel+/tbvbtcLGoaDnLTBkiw44PaJTMMiNQ7wlTXL7TB2LAfr8P1i5sJys36e8joJHTGgCKhzPpvt2tP7a9Vu305ovaL7drO0SgEXHUe2GmNbhTD+/zN7lvL/AdtAaA4hI8NbaJ+9hlJ1tlxn1qB7gpw04RSLr07dtW2WXGcPfVa38iv3pDe58A+DatAaAIVW0x/GWf7mzd8JPTRXnzby4bk94phneUQHKk1DaeMhxR3mKc/cCfTwqWfdqWe/cC2dEaAIqbt3x2a/uagy4TXYzpaudoaTtNIAlSxg5lon3djy8IzO2l4fcBgO+mNQAkwLIphvfGsEOc8qa3qJ3kYsFlY5Ac6W15fvWAfft444ftJ9cu0Ld/AN9LawBIjmDBpFb20z1OVjvMpwSXjUHxS98a8QF3wt2/8JZ92jS8vQPIntYAkCyB7xmBazWx7zr9V6KrMUmkanaifD8QxSL9Pb/Noqz0DfuZ3seobbk0CLieHxCV1gCQUNUbDW98vz3F0KN7mWXGRzU7Vn1nCxQS20wZE607zyjzXxrcTtumAdSb1gCQbN6KWU3cDx4/Wu1c71I2ZNjpAoVgjei9+2Bv1j8O9jcsaRLejgFEozUAJF/6EFqwY30LZ/ywn4uKls+LlLFV8IkgGl76cO9qq+cuD3nnHnZksPhfzcLbLoDc0BoAGpfg9ZubWvf8+lIzZfxT7YCrMuyUgfjV/iPkDeeRS86R05/iEz8gZloDQOPjb1tb6k4fe5C47ujeZpmxRNs5AzGpuXdvmfGpNfK8rmob7BS4trZ9Asg9rQGg8Qq2rm7m/fKgH4ge7e5XO+e1gusHIh7prxu4ZspYLXrtdpt/yzkdg8pNXNYFyCOtAQBy3tulzoMXnCy6tXpZ7ag3Z9iBA/WXMtaI/h0fNkdf8FNvzQLu4gE0AK0BAN9wpz3a3n7k4i5qpz1NcbQdOVA3QoW/d5yXB/3Jm/Nam/D2BiB/tAYA/F9B5eam/qgL97MqWg0yy4yNiic4YxjZS5/Z65llJUut7q0q/PFD9w5sk0/9gAamNQAgk8CqMqpG/OpwMfCA+9UOfYVCCMT3cZVF1tAf3SkeubRDeJsC0HC0BgB8F//L91q7r11/rtqxvy64bAz+ux2if8dH1LZyarB6XovwdgSgYWkNAMiG9+69+9iXGOVmmbFAcEgY/5H+isAnzkXGX72F03YLbzcACoPWAICspO8m4jol4qV+O4uhR99gpoylghNFGjPLLCuZL248rqs78f6d1LahtpFA324AFAStAQB15W9b29QefNaJ4nzjgfSJIhnCAZLLFyljmXWucbcz6tIfhbcNAIVJawBAvSxdavjTxu3qdu/wexUI3he1hwLDYQHJkj7J4xXv1uNO9d8bt5PcskXfLgAUJK0BAFEElZtL3E9eaC+uOaKLqGjxuQoIdobggOJWJXruPN265ogLvBWzd5Jiu7YdAChsWgMAcsUZN+QA63LjbpEyFqevBZchSKC4uOp1/MKuaDfInT52z/DrDaB4aA0AyBnPMfyZj7f2RvzuDOsy4zHBSSJFyywzNld2NkZaT/c6Pvj4Fe7bCxQ5rQEAOVe52QjWL24nrtj3fLNHuxkiZZiCS8cUA1+pFL3bT7SHn3GCv35xm/QFwbXXF0DR0RoAECdvzmu724M79VHBYraoPYkgHDpQAMyUYYvOxkT7miMv81d90Tb8OgIobloDAGK38A3DeeWan1ddZtxjlhlrBJ8GFpL0vXuXVFU0u86bcO/BctHH+usHoOhpDQDIh8ARhrd89k7O6At+Kbq1ftOsPVuYINhw1HNfsqO6e5vH7H9c/XNv5ZyW4dcMQHJoDQDIt6BqczNx/U8uEl2MKYL7C+dbOnRvsS4z3rZH/f6s8GsDIJm0BgA0iLVfGt6bNx4ortj7ShVIvvp3MAmHFeSYmTI+tIb9vMIfd+NespILOQONhdYAgIbkL5/ZzHln+PFmmfGoCig7woEFOZIyNqnn+A5v9vjD/TULmoRfBwDJpjUAoKEFQWAEjzxc4vQ9/lgrVfKuCixbBJ8I5kL6BI8NVve2j7mdj/9hMGVySfq5Dj//AJJPawBAIfFfHLybdcfpFSq4TFW4kHT9Varn7037wb9eFLw3qln4eQbQuGgNACg0/vrFTbzZ4w8TPXYZZpYZGzKEG3y3ZdYNx1R4c8bvF1RuLA0/vwAaH60BAIUqWPtFM++OHx5t9tzlMTNlrBUcFv6vVFD2lGWi/17DvVE/3z8QO/ieH4D/pTUAoNDZ059sZj9y6e9EynhHhZ3t4fDT6KWMTeLyNk+LJ8tPchZO4r69ADRaAwCKQc2FpD98cj/7nnO7q8AzVwtBjVP6O5JTnSe7XezNfLl9+DkDgG9oDQAoJkHV5qb+PWd3MvvsXntbuVTN/YUb06Hh9GO11WNfKfp17OU/2qNDICo53AvgO2kNAChG/pp/NREP/eU40W+vxxrRiSKBeqxLxLU/GCEe/svhgV2tPS8AkInWAIBi5n42vp3z8sCLVDCapAKSlSE0JUW1eozj3ImjzvAWf9g6/DwAwHfRGgBQ7ALbLPVfGrKPVdG2lygrWanCkpchQBUlFfps0bXJHKdL24v9aU/uGX7sAJANrQEASWI/eMm+1nU/utdMGUtFqoiDYKrme35fWredfI0z/rqdwo8TAOpCawBA0virvmjlDD/2LNHFeEqFKVMLV4Uuffu2CmOE89DvfxHs2MBlXQBEpjUAIJE2fWX4c9/cw0kZl6pA9bkKVr4WtAqPp9Z1itdvr7P9RVPbyR1r9McFAPWgNQAgsYLACALfcCePbmvdcmIXFbDmKVWisC4bk16X7eLyNpOtW0/8o/flhJbpddYeCwBEoDUAoLFwX77qcOv2UwaaZcZEs+HPGE5f0mWr8rr9wJ96eu+N2CO8vgCQK1oDABoTf92ipt5nrx1UWdH67yqEvSEa5tZy6esWPlN9zVG/UevSKdi+vjS8ngCQS1oDABqjoHpraVC9pZX7XL9DrCFHXiGu2GeSSBnLVTDboqTvLhIObfVlK5vU715iDT7kNbWsy7xJ9++jlt0yEDu09QKAOGgNAIA0/KWfNHeeqDjaebLi7/aIX48wU8Y4s8yY8e9QuENkd23B9N/Zpn5mofrZaerPl+wxl96sfuef1e8+xN+2lk/6ADQIrQEA+LZgy+om7oyn91B+6M14+lTlD96Nx1wiOhsDVLC7XgW726tTxl1pKvDdqnrDrM5GL2/0+Repv/s75UT1s4erP3cLbLMk/PsBIN+0BgAgCzvWG8HG5U39TctbBJuWt1R/tkr793+3UP+viazeqv8cABQArQEAAIBk0xoAAABINq0BAACAZNMaAAAASDatAQAAgGTTGgAAAEi2/w+Ddw8hhWnzqQAAAABJRU5ErkJggg==;" parent="1" vertex="1">
          <mxGeometry x="195" y="655.31" width="70" height="39.38" as="geometry" />
        </mxCell>
        <mxCell id="V0X47S-BasVmAqZFtNcK-3" value="" style="shape=image;aspect=fixed;image=data:image/png,iVBORw0KGgoAAAANSUhEUgAAAoAAAAFoCAYAAADHMkpRAAA3tElEQVR4Xu3dB5wU9f3/8bmjF7GgKGLviZpiYqyxR38mpvk3xVgie3AH0kEFVBB7QwURK4q9R8QukSYoFooiEZAO0jt3N9/p3/937+IvP+e70b2bnb3dudfn8Xg+8PGRu5ndnf3Mm52dGUNKaQAAAKDx0BoAAABINq0BAACAZNMaAAAASDatAQAAgGTTGgAAAEg2rQEA+LbANkv8TctbKO2CTcv3UDoFj1x4kNV/35PEFfuep/zJvGLfi9LUf1+g/MYesO+xwfjrDlR/d2+lvfrZndSfzQPf034/AOSb1gAASMPfuKyJ9+HTnbwZT5/gvHjl38yUcYNZZjwrUsZsUWZsVFxFfg9HWat+Zpr62SfUn9e4E+/7o/qdP1e/e4/A3FYSXi4A5IPWAIDGzJv26C7OkxW/tYefdYcKbG+pALdAERnCXX1tV+aq3z3OfvAvQ9WyTvHnTWgTXg8AiJPWAIDGJHBESVC9pUX1DccdYQ858nrRc+ePVUBbL2o/vQuHt1xLB8vVot9eU6whR/Y3H7x4L7UuzQLP0dYTAHJJawBAY+F99toe9phLf22WGWOU6gwBLZ8CtQ5rlbvc8cNO8xdO5VNBALHRGgCQdN4Xb7V0XrrqVyp0vaBsSIevDIGsoaTXZZXVr8MI5+WrjvNXfdYsvP4AEJXWAIBECgIjMLcb3i0nHiYGdHpYhazl/w5b4QBWKNKHoL+yrj7stmD0+e2DwK95DNrjAoB60BoAkDTB9nVNvbG/O1h0NYaqULUjQ9gqbCljhdXdqPDGD+gUWFWl4ccHAHWlNQAgSdz37m1vP/CnbmaZMV0FKVsLV8UiZVSpx/Cm/WzvP7kfv9Ay/DgBoC60BgAkwqfjS53h554sKlqOVwFqixaoipSZMlaLPns85N1x7lFy5TyuIwigXrQGABQzf8OS5u6nL/3ELG/xqEgZm1Vo8sMhqsilv7foqce2zuzW+jZ/5Zx9/a1rmoafBwD4LloDAIqRv/XrUmfSqIPFkB/0N8uMJRmCUxKlLx3zoXXXr7qqx94xcC3teQGATLQGABSb4Llrm1h3nt65usyYrEJRVToYZQhLSRWIlLGluovxpn3v+WfK9x7hsDCA76U1AKAYBL5nBBuXtnZeGHCi6Np8nFlmVNaEIT0gNRa+CoLrRbc2D7lTHvxRsHll8/BzBgDf0BoAUOjcJR82cSaN/qkKPSNF7W3bwmGosVsh+uw20PngyYO9NQu4bAwAjdYAgIK1bb3hjynfy7z2iH5mmfGpSN4JHjmjnh+rOmW8J245qbM/tndb7bkE0KhpDQAoNIEjjKBqc0vrxl+cJzobHwgO92YrfVh4i0iVvmmPTR2jnsPmgedozy+AxkdrAEAhCea+3sZ+vOx0FWaeVor3Qs4NL30txJHuGzf/Ilj0fpPw8wygcdEaAFAQJkww3EeuONSuaHKXqL2sC4d7o0s/h184V+zdxxt5RSc5b57+vANoFLQGADSk9Nm93pIZO1nd9+kqLjY+KerbtxWqlLFD/NWYaPU//HdB5eamge9rrwOAZNMaANAgdmww/AWTdxWDDj9X1J7goQcX5JyZMl4WI35zUjB/cltpm/rrAiCRtAYA5FsgKps4D/71VCtlPKRCyaZwSEGs0ieKLLc7G3e6rww5OvzaAEgmrQEA+eS9M3x3647ThpllxiIVRpwMAQX5YYvyFjPtu88p92aP2yn8OgFIFq0BALHbsMRwZ4/rWN2tTVfRpemXguBXKNKX1lFBsPkH1T13+72/YvbOctsa/fUDUPS0BgDEyV8+ayf3uqN/bZYZ42vChh5CUAhSRpXygDvi3F8Gm1e2CL+OAIqb1gCAuNgP/vVo67ofP6iCxUrBZV0KX8pwlQX27afe4b4yeI/w6wmgeGkNAMgZ3zeCdYubipcG7WP273ilChVrBYd7i5EtypvNdQZ0vMyf9liHYNuKEu21BlBUtAYA5Ir3yUt7OBcbXVSA+FhxMwQLFBdLede9bs/z/EXT24VfbwDFQ2sAQFT+kk+aO2O7nCl67fasWWZszxAkUNy+tq4+bLR6jY/xt60rDb/+AAqf1gCAehHCCLZtbOrfevqBYsDeD4iUsVrxMoQHJIOtXt9l4qqDrg0eK28fbNnYRDqOvl0AKEhaAwDqKjC3l3q3djvI+rXRTwWD9Ake4bCA5PLMMmOW/Uujs/vi8I7hbQNAYdIaAFAX7vtjWtlj/v53FQImqTBQnSEgoHHYZnYtfcV5YcCZ7ty3m4e3EwCFRWsAQDaCZbNK3RuPO0b03OVZM2VsyBAI0PgEZvqw8IBO93p3HHdAYFVytjBQoLQGAHwXf8Pi5t78SYebZcZ9ghM88N9tEoMP7et9OemAYPv6JuHtCEDD0hoAkEngCMN+/fp97Nt+2Vft3D8VtbcNC+/0gf9LiM7Ge/b9f+5sT7iXy8YABURrAIDmo5Elzt2n/091mTFF1H7qR/hDtgKzzNhoVrR6wR39q2Pkwjf07QtA3mkNAPiGv2puK/etW08S5U2eFyljR3pnnmEHD2Qjfeu/jaK82b3uzJePDNYvbhre3gDkj9YAALnqs1LvnyN+IHrtcoPaaa/KsDMH6s0sM+ZZQ4663H93xH5yy2pOFAEagNYA0Lj5L17S1h7208vVjnq6SBl2eOcN5ED6k+TtVmfjXfv20/8sJw3RtkMA8dIaABqfwDYNf/2inexRfzhddC2ZpoJf+np+HO5FvFKGX/PVgm7NnnFevPJYtQ22Cnxf2z4B5J7WANC4BHPfaOK8NPBUtUN+WNmq7aSB/PhadDFucyff/0O5ZAaHhYGYaQ0AjcTs2YZ7Y9m+dr8O14iUsVDUfkk/vFMG8il97+hp9rU/6OYNLNtNbtqkb7cAckJrAEi2QOwo8dctamf23vtScZHxiVlmmBl2xEBDSV82Zru40Jgkbjzh9GDH+lbpryiEt2MA0WgNAAllVRr+nH/sLO486xwzZbyW3tFm2PkChcSsLjMesp4oPymY+VoLbZsGUG9aA0AyOc/1+anV1bjfrL2sC+EPxcJT2+wCu3PzG70pD+8X3q4B1I/WAJAcgWuVeB8+3d664dh+ZnmzL9XO1MmwgwUKX8oQoufO0+2bjv2bv/TjtoFra9s7gOxpDQAJsGWp4S94b/fK8uaXmGXG54ITPJAcvtqmp1Rd+8PT/IXv7SyrNujbP4DvpTUAFLdgw9KW7sjTzrbKjcf/fT2/8A4USII1dndjpPvohccFtsllY4A60hoAipfzdI8O4vpjRqvgt1ztIN0MO00gSdJ3qllg3X7qFe6Eu9uF3w8A/jutAaC4BOvmlvhvDd/f6dKyr+hSssLkcC8aGTNlOKJLkzluRcuL/Tnj95CbF2vvEwDfpjUAFA9v3ru7ONfu/heRMiZz316g5pqWz7l3/uRMf8Wc1uH3C4D/0BoACp+/dXWpff/5x4mr9n9C7fDWZdgRAo1TquYkkSXWsB+PsB6+8ODwewdALa0BoEAJYQTLFzbzH7xgf9Gn/XC1s9sg+J4f8N84KgiutHt1uNx//uqOgV3dRHtPAY2Y1gBQmNwnh+5nnW705LIuQJ3YZsqY7Lx45cXuZ6/tHH5fAY2V1gBQWNzZrzS3H+v8G7Os9F21M9uRYQcH4PttNvvu/pg1tvOJ3oqZfBqIRk9rACgMwZbVzd1+h/7Y7L3bE2bt9/y4fRsQjZs+LGz273iXf+OZnQJze9Pw+w5oLLQGgIYVbFnV1Jv58hHWVQdeq3ZYmzPsxABEt8C+84xu6r22XyB2cCFpNDpaA0DDsV6/cWdrxK97qJ3TdMXKsNMCkDvpr1S8ZY35+wXW+481C78fgSTTGgDyKwh8I/ji+abOnT872axo/pZZZmwVHO4F8iUwU8Zas+cuY9xrfnZksGx2afg9CiSR1gCQP/7KOc3d98ccJ1LGWMEJHkBD2yjKm93i/WvCIf6GxXw/EImmNQDkwaYVJd6rQw+yrjlsoFlmLMiwIwLQMNKXWHrfuv2UCv/1oR2k5+jvXyABtAaAmL3d17Cv/9nFVqrme35VgsO9QKFJvye3WF2Md+2rTztR3nef/j4GipzWAJB7ge8Z/tKP29mPl51pdil5U6RvXk/wAwpdoN6r282y0sfct277hb/ysxbh9zZQrLQGgByb+16p+/rNx5hlxii1M1mbYScDoPAtNnu1H+y9c9fBcuXnXDYGRU9rAMgdb+HU3a0rDuyvgt8stQPxMuxUABSLlGEqk6zrfnqpv3lVy/D7HSgmWgNANEH1lhJ/7YJdzCFHnS967DTLLDOE4HAvkBTpy8ZUi167vmuP/uMJ6r3eNrBNbQ4AhU5rAKi/YOoTraxHLjq7usx4UtQGv/DOA0AypP9Rt6E6ZYywXx58vJz7BoeFUVS0BoD6cSfcfaCdajbCLDOWiNpLSYR3GACSxzVTxlyn3559vU9f3jM8F4BCpTUAZM+v3FTiffH2ntaggy8X3VrPVTsDO8MOAkCSpWrOFq4SvXadbg0++P/56xe3leY2bV4AhURrAMjCjtWGP+fF9lVDDjvPLDM+EHziB6CWZ5UZT3v3nHNa8PmLbaRTrc8PoABoDQDfLbCqSp37f3uK1c14VA379Rl2AAAat/Q/CJdYPYy7nZcGHB6eIUAh0BoAMgh8I7CrS5xXh+1uDf3RMDXcVyrpizmHBz8A1DDLDEuUN58rbjimzP3omXZqhuizBWggWgOAzp/5/C52X+MSM2V8JjjcC6BuXOU9N9X6bH/5LO4mgoKgNQD8HzNmGN5jQw4Wl7e9Tw3wrRkGOwBk62tr0CFXefcN6SiXL9fnDZBHWgNALW/tV6VVvQ49RfzN+Kfg7F4A0aWvHbhD/Ml4qWroT48Izxwgn7QGAGn4a75sLbq16W6mjA0md/EAkEPpmaJ8bd/40zOCzSu4pRwahNYAGjt/8YftrcGHDRIpozI8uAEgh5bbd57exd+wuG14DgFx0xpAY+avmrurdc0Rt6rwl/6+H5/8AYhTesassW4+rk9gVTYNzyMgTloDaKz89YvamT3ajRG13/cj/AHIF1Pc8LMrg21rWoXnEhAXrQE0Rv7iGbuKqw64OcNgBoB82GLdfkovf91XHA5GXmgNoLHxl3/aWlz7w6vM2sO+4aEMAPmQPjFklXXryRcHOzZwOBix0xpAYxKsWdDE7L3npWrwbkgP4AxDGQDyJRApY6V1w89OllWbtXkF5JLWABoTd9DhJ6mhuzbDIAaAhvKZ99BfDg3PKyCXtAbQWHgznukoeu6SvshzePgCQEOyxeBDH/YWTm0fnltArmgNoDFw57za0uy92y0iffadPnwBoEGZZcYWs98+Ff7qBc3C8wvIBa0BJF1gVZXaz/e7QA3Z1eGhCwCFQoXAJe7kB48NzzAgF7QGkHT+C1fuKVI19/fVBi4AFJTyZs/K9x9vEp5jQFRaA0g60WfPClF7sWd92AJAIUkZ2527zjk7PMeAqLQGkGTV913QyUwZy7UhCwCFKGUE1Sljov36TXuG5xkQhdYAkspd9mkTMfSo69RAtbQhCwAFyiwzNou7zk75m1aUhucaUF9aA0gqZ8Ldh6tBOkNwwWcAxSUwU8Y/vPmT9wrPNaC+tAaQRMGKWU2cnq36qkFanWG4AkChq/T67PTbwHO1+QbUh9YAkshf+kknNUAnZBiqAFAsXlYBsCQ834D60BpAEtkjf3uqGp7bMwxUACgW29xXh3IYGDmhNYAkEuUt7sswTAGgqNg3H98zPN+A+tAaQNJ48ye1FF2brggPUgAoOoMOmeCvmN0yPOeAutIaQNJYd555gpniws9516VEip67SGvQwdK6/hhp3XyctG4/Rdp3nCatW06U1k2/kNbQo6U18AD193bWf74YdG0qRd8O0hp8qLRu+Jl6jMfXPEYr9BjFlftJ0WMn9TMl+u8A6iJlfOW8MOCn4TkH1JXWABLFsQzrtlOvUwHQ1QYpckgFm4oWKujsK60xl0p36kPSWzhV+l/Pk/76RdLfuEwGm1fIYMsq5Wv13ytlsGmF6i+V/rqvav6et3CK+rmHpf1EVykGHqh+X8vaEKktq4Gkw1731tK67RTpvDxIuh89J71ln0p/zfzax7hpee3jyvgYF6rH+IX0FqjHOPkBaavnSAw6qPYxEgpRFyljq/NMr67Sc/R5B9SB1gCSxH9paAvrMuMdwbX/4tNzZ2nd9wfpzRkvA7FD5qICu1p6896V9kN/k6J3e32Z+dSltObTPWf89TVBLgiC8OrWrxxLPcYJ0r7vj1L02V1fLpCZb19ijAo+GddcZph5QLa0BpAkzvih6Ys/f5ZhiCIXBh4onXeGy6Bqi4yjAqtKupPvl1b607LwsvOhvLm0x1xS8+md9P3w6kUvFSaDqs3SnfKQtK46QF8+kEnKeNObNW4fmWHmAdnSGkCSOK8OPUcNTE4AiUPfDtKdPlYGtinjrMCxpDvtUSn6d9TXIU5dSqXz2GXS37wqvEo5r8C1pPfxc5LDwchKypjrzR7H9wARidYAkkQFwHI1LLn+XwycN27O3eHQ76nAtaXz0sDa7+FlWJc4WHecWvP9xHw9Rt/3pD22TFsPQJMytnpv3vIrvgeIKLQGkBT+xqWlYviZw9TA9LQBimj6dZTBjo0yn5U+2UL021Nflzh0ayXdCfeo5BnDYd//Uumgmf5OYNGeEY188u0y42L1HtTmHpAtrQEkhdqZtq5OGVwAOgb2E+V5+2Tsfyv9Cdnd/6OtSyz6dpD+hsXhNYi90p84WjefoK8PEJYyrlIBsKnMMPuAbGgNIClUAGxvpoxntMGJaLo0qT3jN98BUFX6UzltfWJg3XqSenz5+/Tvm/IrN0n7kUu09QHCzDLjnqByI2cCo960BpAUKgDuowLgG+HBiYgG7C395bNlQ5Q3f7K+PjFwnqgILzovlT6hxnmhv7Y+QJgKgE+rANhKZph9QDa0BpAUKgAeoALge+HBiWjS18Tz1y6UDVHp5YryZto65Zrz+o3hReenfF+6r16nrQ8QpgLgOBUAW8sMsw/IhtYAksL714SD1ZCcGh6ciMa+6+yaO1w0RPkbl0vRby9tnXLNnXR/eNF5K/et22sOs4fXCfi/1Gx7WwXANjLD7AOyoTWApFAB8DA1JGeEByeise//fzLYtlY2RKVvs2YNPkxbp1zzPnwyvOi8lfv2HXm93A2K1kQVANvKDLMPyIbWAJKCABgP+6ELZbBjg2yICraultZ1P9bWKdcIgCgCBEBEojWApCAAxsN55GIZVG6SDVHBtjXSuv4YbZ1yzfvkhfCi81YEQGSJAIhItAaQFATAeDhjUzKojufev99X6UPP1k3HaeuUa96sceFF560IgMgSARCRaA0gKQiA8XAe76oC4FbZEBVsXyetW0/W1inXCIAoAgRARKI1gKQgAMaDABhvEQCRJQIgItEaQFIQAONBAIy3CIDIEgEQkWgNICkIgPEgAMZbBEBkiQCISLQGkBQEwHgQAOMtAiCyRABEJFoDSAoCYDwIgPEWARBZIgAiEq0BJAUBMB4EwHiLAIgsEQARidYAkoIAGA8CYLxFAESWCICIRGsASUEAjAcBMN4iACJLBEBEojWApCAAxoMAGG8RAJElAiAi0RpAUhAA40EAjLcIgMgSARCRaA0gKQiA8SAAxlsEQGSJAIhItAaQFATAeBAA4y0CILJEAEQkWgNICgJgPAiA8RYBEFkiACISrQEkBQEwHgTAeIsAiCwRABGJ1gCSggAYDwJgvEUARJYIgIhEawBJQQCMBwEw3iIAIksEQESiNYCkIADGgwAYbxEAkSUCICLRGkBSEADjQQCMtwiAyBIBEJFoDSApCIDxIADGWwRAZIkAiEi0BpAUBMB4EADjLQIgskQARCRaA0gKAmA8CIDxFgEQWSIAIhKtASQFATAeBMB4iwCILBEAEYnWAJKCABgPAmC8RQBElgiAiERrAElBAIwHATDeIgAiSwRARKI1gKQgAMaDABhvEQCRJQIgItEaQFIQAONBAIy3CIDIEgEQkWgNICkIgPEgAMZbBEBkiQCISLQGkBQEwHgQAOMtAiCyRABEJFoDSAoCYDwIgPEWARBZIgAiEq0BJAUBMB4EwHiLAIgsEQARidYAkoIAGA8CYLxFAESWCICIRGsASUEAjAcBMN4iACJLBEBEojWApCAAxqNRBMDZr4YXnbdy371bivLm2joBIQRARKI1gKQgAMajUQTAeRPCi85buf8cKUVFS22dgBACICLRGkBSEADj0aABcMcGaQ0/U1unXPPnTw4vOm/lvnevFN0IgPheBEBEojWApCAAxqNBA2DlJmmPPE9bp1zzV34WXnTeyp14nwqArbR1AkIIgIhEawBJQQCMR4MGQLVc+5GLtHXKKRW+go3LwovOW7lTH5bi8p309QK+jQCISLQGkBQEwHg0aAC0q6Xz0kBtnXLJuvaHMti2NrzovJU34xkperfX1gsIIQAiEq0BJAUBMB4NGgB9T7rvj4n1LFn7ob+qx7ctvOi8lTf3LSmu2EdbLyCEAIhItAaQFATAeDRkAEyXt+gDKa45QluvnOjaVLqT7peB54YXm7fyV30uraFH6+sGfBsBEJFoDSApCIDxaOgAGLiWdF65VoqKFtq6RdKlRFrDfyX9tV+FF5nfcm1pP3ShWqcSfR2B/yAAIhKtASQFATAeDR0A0+VvXpn7kHT1YdL97A31y73w4vJe3vzJUvTaTV9H4D8IgIhEawBJQQCMRyEEwHT5m1ZI5+VBUvTtoK1jnXRtJu3hZ0lv4VQZuE54MQ1S6UPQ7qTR0R8bkowAiEi0BpAUBMB4FEoADIKgJij5W7+W7odPSvuBP0vr+p9JK/39wIEHSnHlfrUnU3zjyv2lGHRQzf+3hv1EWiN+I523bpP+8tkysM2a31dIVfPY1i2qWUf7jjOkde0Patb/W4+rf8dv69ehNjTW2EOK3rspu0rRc2elnRSXt5Wie5va6wym7zaSPpkmfd/hLqXa64yCRwBEJFoDSAoCYDwKJQBqlQ6EVnXNJ4PpUOcv+kD6C6bUWjhV+otn1JxgkT58HFhV6VOKw7+hYCvwPOlvW6PWf656XNNrHpM3f5L0vnhHenPf/o/Z46Q36x+1Zr4svY+elp4Kx977Y6Q75cGau4y4E+6R7tu3S/eNm6U7fph0X7lWOi9eIZ3n+kjnqW7q9e0inUf/Lu2H/ybt+y+Q9qjfS1uFZfuus1QQPU1at5wkrZt+URuihxwprasPqw3cAzrVHrYub6ZtM4gFARCRaA0gKQiA8SjYAEhFrsBzZOAIGYjKmtc42LGx5pqIwZavay6OHaxfJP0186X/9Tzpr5wj/WWfSn/JR9L/anrN7fPSgdT99KWakGmrICkGHqRtP8gZAiAi0RpAUhAA40EApL6rvjk0X/Np7LY10v3oGWndcgKfDOYeARCRaA0gKQiA8SAAUnUtf9taaT/Wufb7hhm2KdQLARCRaA0gKQiA8SAAUvUpf9Nyad3zP9r2hHojACISrQEkBQEwHgRAqj4V+L50Z4+Tot+e2jaFeiEAIhKtASQFATAeBECqvpX+TqA18jxtm0K9EAARidYAkoIAGA8CIFXv8j3pPD9Aiq5NtO0KdUYARCRaA0gKAmA8CIBUlHIm3ifF5W207Qp1RgBEJFoDSAoCYDwIgFSU8mb+o/YOJRm2LdQJARCRaA0gKQiA8SAAUlEqfbHomtvUZdi2UCcEQESiNYCkIADGgwBIRSn/y/c4Ezg3CICIRGsASUEAjAcBkIpSBMCcIQAiEq0BJAUBMB4EQCpKEQBzhgCISLQGkBQEwHgQAKkoRQDMGQIgItEaQFIQAONBAKSilHpfStG3g7Zdoc4IgIhEawBJQQCMBwGQilLeZ69L0Wd3bbtCnREAEYnWAJKCABgPAiAVpbw5rxEAc4MAiEi0BpAUBMB4EACpKEUAzBkCICLRGkBSEADjQQCkopT32RsEwNwgACISrQEkBQEwHgRAKkpxEkjOEAARidYAkoIAGA8CIBWluAxMzhAAEYnWAJKCABgPAiAVpQiAOUMARCRaA0gKAmA8CIBUlCIA5gwBEJFoDSApCIDxIABSUYoAmDMEQESiNYCkIADGgwBIRSkCYM4QABGJ1gCSggAYDwIgFaUIgDlDAEQkWgNICgJgPAiAVJQiAOYMARCRaA0gKQiA8SAAUlHKXzRdBcCO2naFOiMAIhKtASQFATAeBEAqSvmLP5Ci/97adoU6IwAiEq0BJAUBMB4EQCpKEQBzhgCISLQGkBQEwHgQAKkoRQDMGQIgItEaQFIQAONBAKSiFAEwZwiAiERrAElBAIwHAbABKghkYFVJf91X0l81NzsbFsvAEeHf1OBFAMwZAiAi0RpAUhAA40EAzFOlQ5/vSX/TCumMGyKtm34hrcGHSmvQQdm5+jBp3X6qdN65U/rb1qhf54eX0CDlL58lxYBO2naFOiMAIhKtASQFATAeBMD8VGBuk+7EUVJcsa/2GtTZVftLb/arMrCqw4vJe/kr56jHtI++jqgrAiAi0RpAUhAA40EAzE85b90uRa9dtee/3q7cV7oznpaBY4UXldciAOYMARCRaA0gKQiA8SAAxl9e+mLJffbQnvvIhhypAtjnNYeXG6oIgDlDAEQkWgNICgJgPAiA8VZgbpfWyN9oz3uu2GNTMvAb7vuABMCcIQAiEq0BJAUBMB4EwHjLWzBFikEHac97zvRuLwNRGV5s3ooAmDMEQESiNYCkIADGgwAYb7nvj5GiRzvtec8lf8Wc8GLzVv7qL6W4cj9tnVBnBEBEojWApCAAxoMAGG+579wpRXlT7XnPJe/zN8KLzVv5axfWnJUcXifUGQEQkWgNICkIgPEgAMZb7tt3SNE17gD4enixeSsCYM4QABGJ1gCSggAYDwJgvJWfAMgngAlAAEQkWgNICgJgPAiA8VZeAuD8SeHF5q0IgDlDAEQkWgNICgJgPAiA8VY+AqC/YEp4sXkrAmDOEAARidYAkoIAGA8CYLxFAESWCICIRGsASUEAjAcBMN7KSwBc8lF4sXkrAmDOEAARidYAkoIAGA8CYLyVlwC4bGZ4sXkrf8NSFQAP0NYJdUYARCRaA0gKAmA8CIDxVtIDYLB5pbQGHqitE+qMAIhItAaQFATAeBAA4628BMBVc8OLzVsRAHOGAIhItAaQFATAeBAA4y134igpurXSnvdc8jetCC82b0UAzBkCICLRGkBSEADjQQCMt7xZr0jRfy/tec+ZPu1l4NjhxeatCIA5QwBEJFoDSAoCYDwIgPGWv2GJtG78ufa854r90IUy8P3wYvNWBMCcIQAiEq0BJAUBMB4EwHgrCHzpTrhHivLm2nMfWb+O0lswWS0jCC82b0UAzBkCICLRGkBSEADjQQCMvwKxQ9r3/laKLqXa819vPdpJ9/Wb1O+uDC8ur0UAzBkCICLRGkBSEADjQQDMT3lfz5PWqN9JUd5Mew3qrLy5dMYNkcH2deHF5L0IgDlDAEQkWgNICgJgPAiA+an09/T8rWulkz4cPOiQmk/wRLeWUlQ0z073VlL02lVaN58gvU9flIFVFV5EgxQBMGcIgIhEawBJQQCMBwEw/+VXbpLenFel+85w6b52fXYm3if9r6YVTPD7pgiAOUMARCRaA0gKAmA8CIBUlCIA5gwBEJFoDSApCIDxIABSUYoAmDMEQESiNYCkIADGgwBIRalg62oVAA/StivUGQEQkWgNICkIgPEgAFJRKqjcJK3Bh2jbFeqMAIhItAaQFATAeBAAqShFAMwZAiAi0RpAUhAA40EApKIUATBnCICIRGsASUEAjAcBkIpSwY6N0hp0sLZdoc4IgIhEawBJQQCMBwGQilLBlq85Czg3CICIRGsASUEAjAcBkIpSXAYmZwiAiERrAElBAIwHAZCKUgTAnCEAIhKtASQFATAeBEAqShEAc4YAiEi0BpAUBMB4EACpKEUAzBkCICLRGkBSEADjQQCkopS/aYUUBMBcIAAiEq0BJAUBMB4EQCpK+esXSXHV/tp2hTojACISrQEkBQEwHgRAKkr5axZIceV+2naFOiMAIhKtASQFATAeBEAqSvlfz5Xiin207Qp1RgBEJFoDSAoCYDwIgFSU8pfPlGJAJ227Qp0RABGJ1gCSggAYDwIgFaX8xR9K0X9vbbtCnREAEYnWAJKCABgPAiAVpfyFU6Tot5e2XaHOCICIRGsASUEAjAcBkIpS3hfvSNG3g7Zdoc4IgIhEawBJQQCMhzM2JYOqLZKi6lPezH9I0Xs3bbtCnREAEYnWAJKCABgP++GLZLBjo6So+pQ77TEperTTtivUGQEQkWgNICkIgPGwH/iTDLavkxRVn3In3CNF99badoU6IwAiEq0BJIUKgIeoADgtw+BEBPbI38hgyypJUfUpZ/wwKSpaaNsV6uxdFQDbyAyzD8iG1gCSQgXAA1UAnJRhcCIC6+bjpb9ukaSoulYQ+NJ+6nK1HZVo2xXqRs228SoAtpYZZh+QDa0BJIUKgPuoIflmeHAiokEHSX/l55Ki6lrps8ft+y/QtynUmZptz6oA2EpmmH1ANrQGkBTevAl7iJTxQnhwIqKKltJfMCX9cY6kqLqUv+4rad12ir5Noc5UABytAmALmWH2AdnQGkBSqADYtjplPBgenIjOfeculf8IgFQdSm0v3vyJUly1v7Y9oR5SxnXBjo3NZIbZB2RDawBJ4S2f3cQcfOhNalj62vBEJNatJ8nAcyVFZVuBY0v3rdvU9lOqbU+os8DubKRUACyVGWYfkA2tASSJ8+rQHmpYVmYYoIiiazPpLflYUlS2FWxdLa0bj9W3JdRHpffAJedKq1qbeUC2tAaQJCoA/kENy9UZBigiskafL4PqLRwKpr630tuIk/70r2tTbTtCPaSMxd7sccfJDDMPyJbWAJLEfXXoUWpYfqENUERX3lzaT5RLf9MKQiCVudR2kb5toDtptBSXt9G3IdRPynhPBcADZYaZB2RLawBJ4r01tI3oarynhmagDVFEV9FC2vf9QXrzJshAVEqK+t9ybenPnyztp7pL0ae9vu2gvgIrZTzizx7HRaARidYAEmXTV4Z9w49HqKHpZRikyJWBB0h79PnS/edI6S2fJQOrWlKNrwK7WnpLP5LuxFHSfuAv0hp0MId9c6/aGX3+VXL7On3eAXWgNYCksYefeY4amnaGQYqcKpGivJkU3VpJ0WsXaV1zmLTuPE3a9/1R2mMulc7YlHSeKJfOs71R7B7vUvN62o9cIq1Rv5PWrSfXhr2e7Wpf//R2wN0+YmGmjOX2CwNODc85oK60BpA07sR724oupevCgxQAio15oTHNHTlg5/CcA+pKawBJJCpaPB8epABQdPodcqucPVubcUBdaQ0gicTA/X8rOAwMoIiZZYYj7vvDkeH5BtSH1gCSyF/6yX5qeE4PD1QAKBZqhk0JPLckPN+A+tAaQBIFiz9pYV1qDBV8CgigODnOpUYXFQC1+QbUh9YAEsk2DfeFq443U8Y8wTUBARSXQM2uD71pYw+TQaDPN6AetAaQWDNfbWr37Xi34FNAAEXELDOqxOAjBngr5zbV5hpQT1oDSDLvwfOPVAP16/CABYACFagA+LHzxo2Hh+cZEIXWABJt3YIS0WvX4emhmmHQAkBhSRm2dfNxff0tq0q1eQZEoDWApPNvOWcfNVhnaYMWAAqM2aV0mnz2ihbhOQZEpTWApPMrNza1Rp7XWf3LelN42AJAAdlgP335ueEZBuSC1gAaA+f9x/ao7mw8qwasl2HoAkBDc5QR/oo5bcPzC8gFrQE0BoHnGM4r1xwqKlrMyTB4AaAheWavXd50P3jiwMD3tPkF5ILWABoT55rDf6+G7eYMAxgAGkbKWOY++JdTw/MKyCWtATQmwSfPt6juYgxTQ7daG8IAkH9C9NqtXC7+kLN+ESutATQm6cMrzsfP7W723Hm0+le3mWEYA0B+pIwq0XePG/wVc9qEZxWQa1oDaIy8j57tKHq3Hyu4PiCAhlFtXX3YPf6i6buH5xMQB60BNFbuzJf3Uf8Cf0cQAgHkW/+9x/hfvd8xPJeAuGgNoLEKgsBwZzx9uOjW6mUVBNOXYCAIAohTkL7Th9ljpyf9lZ93CM8kIE5aA2jsvE9e2Fv02eMBvhMIIGZbrMGH3u4t/aR9eA4BcdMaAFQI/PSl9qJrszvMMmNbhqENAFFtt648oLe/cOpu4fkD5IPWAFDL//Dpne1U056irGSV4HAwgOgCMz1LOhtLq8qbXOp/PY97/KLBaA0A3+a8dv1RoqL5W4JrBQKIQIW/HWbv9k+7ZacdIefO1WYNkE9aA4DOff7qjvZZNReMXqT44cEOAN8hPTP+ZXdrcaXz4VO7hucL0BC0BoAMqquNYNq7rcU9vz7RTBkvCw4JA8iCmhfC7Gw8bj/T6/hg/sTm2mwBGojWAPDfBa5t+NvWthD9D/5/4kJjqkgZleGBD6DRS/8DcZsoNybbd591VmBVNw08V5snQEPSGgCy8MUXhndn705On44D1KCfp3gZdgIAGh/fTBkzxJAf9fLH9+4gxRZ9fgAFQGsAyF7wr4ml7vjrTxCXGaNEytiSYWcAoLFIGevVLBjufvDEUd6yWU3C8wIoJFoDQN2kDwsHW9e0sh+++DhRXvKu2hFsF5woAjQW6cO9W0T3ls/Zr13/czULWgaBr80JoNBoDQD157/arY246fiy6pQxSe0UrAw7CwDJkA5+lWaZ8U9rxK8vkRNu5RM/FBWtASAab/WXpc7URw4VvXa7Ru0gVmbYcQAocir4LRTDftLLff+RA/3t60rCcwAodFoDQG746xe3cCeOOkZUtByrdhibBJeOAYpbyvCVdaJ729HeKQf/wN/ydbPw+x4oFloDQI5NfajEvve8s8wy412189gqCIJAMdokurV50bn3jyfILyaUau9zoMhoDQC5F7iW4Uy4a29r+JndVRD8SBACgWJhK1PsMZem3KljuIsHEkNrAIiPv3lVM3/pxwea5c3vEiljs6g9W5gwCBSWoOZwb5l6j17e/Ar/uYv2C6o2Nw2/n4FipjUA5MHKeSXezWccLXrv/qiZMtZm2AEBaBjpf5Att646YLQ//IyDpWPp718gAbQGgPxxP3ymlf1U9wtVCHxHpIzqDDsjAPmSvrVjlybjnFeHnuPNn9Qq/H4FkkRrAMivwKos9cb13c+63OihdkArtJ0SgLilz+6dZ/cyyrz3R+8dfo8CSaQ1ADQA3zUCxyzx7/3tXtbAg+42U8Yys8xwM+yoAORO+gSPJWLoUUPFi/13Sb8HJXfxQCOhNQA0LH/F7Ob2c31PNfvuMVbtnLZl2GkBiEj9A2udGHLk/e5zfY8PdmzgLh5odLQGgMLgzX2zvdvPuFTtrD4UfBoI5IqjTHL77X2ev3zmLuH3HdBYaA0ABSIIjGDHulLr9Zs6VA8+tIdZZiwXtYeswjs0AN/PEhUtPhODD+3sfvLi7sGOjdy+DY2a1gBQmJwnuh5l3XjsvSJVEwTT1ygL7+AA6NKfni+0zjaGO+OHdQq/r4DGSmsAKFz+11+0da855iyzs/GK4NNA4PsIq7PxsDvyD6f6zz3aSvqc4AF8Q2sAKHBbVhvel+/tbvbtcLGoaDnLTBkiw44PaJTMMiNQ7wlTXL7TB2LAfr8P1i5sJys36e8joJHTGgCKhzPpvt2tP7a9Vu305ovaL7drO0SgEXHUe2GmNbhTD+/zN7lvL/AdtAaA4hI8NbaJ+9hlJ1tlxn1qB7gpw04RSLr07dtW2WXGcPfVa38iv3pDe58A+DatAaAIVW0x/GWf7mzd8JPTRXnzby4bk94phneUQHKk1DaeMhxR3mKc/cCfTwqWfdqWe/cC2dEaAIqbt3x2a/uagy4TXYzpaudoaTtNIAlSxg5lon3djy8IzO2l4fcBgO+mNQAkwLIphvfGsEOc8qa3qJ3kYsFlY5Ac6W15fvWAfft444ftJ9cu0Ld/AN9LawBIjmDBpFb20z1OVjvMpwSXjUHxS98a8QF3wt2/8JZ92jS8vQPIntYAkCyB7xmBazWx7zr9V6KrMUmkanaifD8QxSL9Pb/Noqz0DfuZ3seobbk0CLieHxCV1gCQUNUbDW98vz3F0KN7mWXGRzU7Vn1nCxQS20wZE607zyjzXxrcTtumAdSb1gCQbN6KWU3cDx4/Wu1c71I2ZNjpAoVgjei9+2Bv1j8O9jcsaRLejgFEozUAJF/6EFqwY30LZ/ywn4uKls+LlLFV8IkgGl76cO9qq+cuD3nnHnZksPhfzcLbLoDc0BoAGpfg9ZubWvf8+lIzZfxT7YCrMuyUgfjV/iPkDeeRS86R05/iEz8gZloDQOPjb1tb6k4fe5C47ujeZpmxRNs5AzGpuXdvmfGpNfK8rmob7BS4trZ9Asg9rQGg8Qq2rm7m/fKgH4ge7e5XO+e1gusHIh7prxu4ZspYLXrtdpt/yzkdg8pNXNYFyCOtAQBy3tulzoMXnCy6tXpZ7ag3Z9iBA/WXMtaI/h0fNkdf8FNvzQLu4gE0AK0BAN9wpz3a3n7k4i5qpz1NcbQdOVA3QoW/d5yXB/3Jm/Nam/D2BiB/tAYA/F9B5eam/qgL97MqWg0yy4yNiic4YxjZS5/Z65llJUut7q0q/PFD9w5sk0/9gAamNQAgk8CqMqpG/OpwMfCA+9UOfYVCCMT3cZVF1tAf3SkeubRDeJsC0HC0BgB8F//L91q7r11/rtqxvy64bAz+ux2if8dH1LZyarB6XovwdgSgYWkNAMiG9+69+9iXGOVmmbFAcEgY/5H+isAnzkXGX72F03YLbzcACoPWAICspO8m4jol4qV+O4uhR99gpoylghNFGjPLLCuZL248rqs78f6d1LahtpFA324AFAStAQB15W9b29QefNaJ4nzjgfSJIhnCAZLLFyljmXWucbcz6tIfhbcNAIVJawBAvSxdavjTxu3qdu/wexUI3he1hwLDYQHJkj7J4xXv1uNO9d8bt5PcskXfLgAUJK0BAFEElZtL3E9eaC+uOaKLqGjxuQoIdobggOJWJXruPN265ogLvBWzd5Jiu7YdAChsWgMAcsUZN+QA63LjbpEyFqevBZchSKC4uOp1/MKuaDfInT52z/DrDaB4aA0AyBnPMfyZj7f2RvzuDOsy4zHBSSJFyywzNld2NkZaT/c6Pvj4Fe7bCxQ5rQEAOVe52QjWL24nrtj3fLNHuxkiZZiCS8cUA1+pFL3bT7SHn3GCv35xm/QFwbXXF0DR0RoAECdvzmu724M79VHBYraoPYkgHDpQAMyUYYvOxkT7miMv81d90Tb8OgIobloDAGK38A3DeeWan1ddZtxjlhlrBJ8GFpL0vXuXVFU0u86bcO/BctHH+usHoOhpDQDIh8ARhrd89k7O6At+Kbq1ftOsPVuYINhw1HNfsqO6e5vH7H9c/XNv5ZyW4dcMQHJoDQDIt6BqczNx/U8uEl2MKYL7C+dbOnRvsS4z3rZH/f6s8GsDIJm0BgA0iLVfGt6bNx4ortj7ShVIvvp3MAmHFeSYmTI+tIb9vMIfd+NespILOQONhdYAgIbkL5/ZzHln+PFmmfGoCig7woEFOZIyNqnn+A5v9vjD/TULmoRfBwDJpjUAoKEFQWAEjzxc4vQ9/lgrVfKuCixbBJ8I5kL6BI8NVve2j7mdj/9hMGVySfq5Dj//AJJPawBAIfFfHLybdcfpFSq4TFW4kHT9Varn7037wb9eFLw3qln4eQbQuGgNACg0/vrFTbzZ4w8TPXYZZpYZGzKEG3y3ZdYNx1R4c8bvF1RuLA0/vwAaH60BAIUqWPtFM++OHx5t9tzlMTNlrBUcFv6vVFD2lGWi/17DvVE/3z8QO/ieH4D/pTUAoNDZ059sZj9y6e9EynhHhZ3t4fDT6KWMTeLyNk+LJ8tPchZO4r69ADRaAwCKQc2FpD98cj/7nnO7q8AzVwtBjVP6O5JTnSe7XezNfLl9+DkDgG9oDQAoJkHV5qb+PWd3MvvsXntbuVTN/YUb06Hh9GO11WNfKfp17OU/2qNDICo53AvgO2kNAChG/pp/NREP/eU40W+vxxrRiSKBeqxLxLU/GCEe/svhgV2tPS8AkInWAIBi5n42vp3z8sCLVDCapAKSlSE0JUW1eozj3ImjzvAWf9g6/DwAwHfRGgBQ7ALbLPVfGrKPVdG2lygrWanCkpchQBUlFfps0bXJHKdL24v9aU/uGX7sAJANrQEASWI/eMm+1nU/utdMGUtFqoiDYKrme35fWredfI0z/rqdwo8TAOpCawBA0virvmjlDD/2LNHFeEqFKVMLV4Uuffu2CmOE89DvfxHs2MBlXQBEpjUAIJE2fWX4c9/cw0kZl6pA9bkKVr4WtAqPp9Z1itdvr7P9RVPbyR1r9McFAPWgNQAgsYLACALfcCePbmvdcmIXFbDmKVWisC4bk16X7eLyNpOtW0/8o/flhJbpddYeCwBEoDUAoLFwX77qcOv2UwaaZcZEs+HPGE5f0mWr8rr9wJ96eu+N2CO8vgCQK1oDABoTf92ipt5nrx1UWdH67yqEvSEa5tZy6esWPlN9zVG/UevSKdi+vjS8ngCQS1oDABqjoHpraVC9pZX7XL9DrCFHXiGu2GeSSBnLVTDboqTvLhIObfVlK5vU715iDT7kNbWsy7xJ9++jlt0yEDu09QKAOGgNAIA0/KWfNHeeqDjaebLi7/aIX48wU8Y4s8yY8e9QuENkd23B9N/Zpn5mofrZaerPl+wxl96sfuef1e8+xN+2lk/6ADQIrQEA+LZgy+om7oyn91B+6M14+lTlD96Nx1wiOhsDVLC7XgW726tTxl1pKvDdqnrDrM5GL2/0+Repv/s75UT1s4erP3cLbLMk/PsBIN+0BgAgCzvWG8HG5U39TctbBJuWt1R/tkr793+3UP+viazeqv8cABQArQEAAIBk0xoAAABINq0BAACAZNMaAAAASDatAQAAgGTTGgAAAEi2/w+Ddw8hhWnzqQAAAABJRU5ErkJggg==;" parent="1" vertex="1">
          <mxGeometry x="700" y="670" width="70" height="39.38" as="geometry" />
        </mxCell>
        <mxCell id="FHFWv4Xz0EEvORIlSYWK-1" value="2) Check for stocks, update order status using Order API and publishes an event &#39;Order Ready&#39;" style="text;html=1;align=left;verticalAlign=middle;whiteSpace=wrap;rounded=0;" vertex="1" parent="1">
          <mxGeometry x="330" y="600" width="120" height="80" as="geometry" />
        </mxCell>
        <mxCell id="FHFWv4Xz0EEvORIlSYWK-2" value="Invoice Consumer listens to &#39;Order Ready&#39; event and initiates invoicing" style="text;html=1;align=left;verticalAlign=middle;whiteSpace=wrap;rounded=0;" vertex="1" parent="1">
          <mxGeometry x="680" y="470.00000000000006" width="120" height="80" as="geometry" />
        </mxCell>
        <mxCell id="FHFWv4Xz0EEvORIlSYWK-3" value="Dispatch Service listens to &#39;Order Ready&#39; event and initiates invoicing" style="text;html=1;align=left;verticalAlign=middle;whiteSpace=wrap;rounded=0;" vertex="1" parent="1">
          <mxGeometry x="680" y="1140" width="120" height="80" as="geometry" />
        </mxCell>
        <mxCell id="FHFWv4Xz0EEvORIlSYWK-4" value="" style="shape=image;verticalLabelPosition=bottom;labelBackgroundColor=default;verticalAlign=top;aspect=fixed;imageAspect=0;image=https://cdn-icons-png.flaticon.com/512/5202/5202877.png;" vertex="1" parent="1">
          <mxGeometry x="-300" y="760" width="130" height="130" as="geometry" />
        </mxCell>
        <mxCell id="FHFWv4Xz0EEvORIlSYWK-7" style="edgeStyle=orthogonalEdgeStyle;rounded=0;orthogonalLoop=1;jettySize=auto;html=1;entryX=0.5;entryY=1;entryDx=0;entryDy=0;dashed=1;dashPattern=8 8;" edge="1" parent="1" source="FHFWv4Xz0EEvORIlSYWK-5" target="FHFWv4Xz0EEvORIlSYWK-6">
          <mxGeometry relative="1" as="geometry" />
        </mxCell>
        <mxCell id="FHFWv4Xz0EEvORIlSYWK-5" value="" style="shape=image;verticalLabelPosition=bottom;labelBackgroundColor=default;verticalAlign=top;aspect=fixed;imageAspect=0;image=https://cdn-icons-png.flaticon.com/512/1801/1801308.png;" vertex="1" parent="1">
          <mxGeometry x="-302.5" y="1000" width="140" height="140" as="geometry" />
        </mxCell>
        <mxCell id="FHFWv4Xz0EEvORIlSYWK-6" value="Ecommerce Stroe" style="text;html=1;align=center;verticalAlign=middle;whiteSpace=wrap;rounded=0;fontStyle=1" vertex="1" parent="1">
          <mxGeometry x="-295" y="880" width="125" height="30" as="geometry" />
        </mxCell>
        <mxCell id="FHFWv4Xz0EEvORIlSYWK-8" value="Customer" style="text;html=1;align=center;verticalAlign=middle;whiteSpace=wrap;rounded=0;fontStyle=1" vertex="1" parent="1">
          <mxGeometry x="-295" y="1140" width="125" height="30" as="geometry" />
        </mxCell>
      </root>
    </mxGraphModel>
  </diagram>
</mxfile>
